<svg xmlns="http://www.w3.org/2000/svg" viewBox="0 0 760 250" role="img" aria-label="年間PMTC実施件数 300件">
  <defs>
    <filter id="softShadow" x="-10%" y="-20%" width="120%" height="150%">
      <feDropShadow dx="0" dy="10" stdDeviation="12" flood-color="#403319" flood-opacity=".10"/>
    </filter>
    <linearGradient id="goldLine" x1="0" x2="1">
      <stop offset="0" stop-color="#f4c93e"/>
      <stop offset=".5" stop-color="#ffdc58"/>
      <stop offset="1" stop-color="#d9aa34"/>
    </linearGradient>
    <g id="laurelSide" fill="#d5a236" stroke="#d5a236" stroke-linejoin="round">
      <path d="M78 42C48 78 47 142 72 204" fill="none" stroke-width="4" stroke-linecap="round"/>
      <path d="M75 52C64 47 51 52 42 65C57 68 69 63 75 52Z"/>
      <path d="M61 77C50 73 38 81 33 95C47 96 58 90 61 77Z"/>
      <path d="M55 105C43 103 34 114 32 129C46 127 55 119 55 105Z"/>
      <path d="M58 134C46 136 39 150 43 164C56 159 63 149 58 134Z"/>
      <path d="M68 162C57 168 54 183 62 195C73 187 77 175 68 162Z"/>
      <path d="M82 186C72 196 75 211 88 219C95 207 94 195 82 186Z"/>
    </g>
  </defs>
  <rect x="8" y="8" width="744" height="234" fill="#fff" stroke="#ddb45a" stroke-width="2.5" filter="url(#softShadow)"/>
  <use href="#laurelSide"/>
  <use href="#laurelSide" transform="translate(760 0) scale(-1 1)"/>
  <text x="380" y="83" text-anchor="middle" font-family="'Yu Gothic','Meiryo',sans-serif" font-size="29" font-weight="800" fill="#123f60">年間PMTC実施件数</text>
  <rect x="232" y="156" width="296" height="24" fill="url(#goldLine)"/>
  <text x="380" y="174" text-anchor="middle" font-family="Georgia,'Times New Roman','Yu Mincho',serif" font-weight="800" fill="#004b93">
    <tspan font-size="98">300</tspan><tspan font-size="76" dx="4">件</tspan>
  </text>
</svg>
