<svg xmlns="http://www.w3.org/2000/svg" width="720" height="150" viewBox="0 0 720 150" role="img" aria-label="FUKUMURA DENTAL HYGIENIST">
  <g transform="translate(10 14)">
    <circle cx="56" cy="56" r="50" fill="#fffdf9" stroke="#d5a24d" stroke-width="3"/>
    <circle cx="56" cy="56" r="43" fill="none" stroke="#e4bf75" stroke-width="2"/>
    <path d="M42 43c5-9 22-9 28 0 5 8 1 21-2 32-3 13-6 19-11 19-4 0-4-9-8-9s-4 9-8 9c-5 0-8-6-11-19-3-11-7-24-2-32z" fill="#fff" stroke="#6a5038" stroke-width="3.6" stroke-linecap="round" stroke-linejoin="round"/>
    <path d="M29 76c16-2 36-8 54-25" fill="none" stroke="#d9818b" stroke-width="8" stroke-linecap="round" opacity=".8"/>
    <path d="M78 33c10 5 16 14 18 25" fill="none" stroke="#2aa7a0" stroke-width="4" stroke-linecap="round"/>
    <path d="M27 36c8-8 17-13 29-14" fill="none" stroke="#d5a24d" stroke-width="4" stroke-linecap="round"/>
  </g>
  <text x="122" y="72" fill="#4d3422" font-family="Georgia, 'Times New Roman', serif" font-size="48" font-weight="600" letter-spacing="8">FUKUMURA</text>
  <line x1="122" y1="103" x2="169" y2="103" stroke="#d9818b" stroke-width="4" stroke-linecap="round"/>
  <text x="184" y="112" fill="#d9818b" font-family="'Noto Serif JP', Georgia, serif" font-size="18" font-weight="700" letter-spacing="4">DENTAL HYGIENIST</text>
  <line x1="409" y1="103" x2="456" y2="103" stroke="#d9818b" stroke-width="4" stroke-linecap="round"/>
</svg>
